<?xml version="1.0" encoding="utf-8"?><svg viewBox="0 0 21 21" xmlns="http://www.w3.org/2000/svg" xmlns:xlink="http://www.w3.org/1999/xlink"><style>:root>svg{display:none}:root>svg:target{display:block}</style><svg fill="none" viewBox="0 0 21 21" id="close" xmlns="http://www.w3.org/2000/svg"><path d="M19.07 1.293 18.365 2l.707-.707Zm0 1.414.708.707-.707-.707Zm-1.413-1.414-.708-.707.707.707Zm-7.475 7.475-.707.707a1 1 0 0 0 1.414 0l-.707-.707ZM2.707 1.293l.707-.707-.707.707Zm-1.414 0L2 2l-.707-.707Zm0 1.414-.707.707.707-.707Zm7.475 7.475.707.707a1 1 0 0 0 0-1.414l-.707.707Zm-7.475 7.475-.707-.708.707.707Zm0 1.414L2 18.364l-.707.707Zm1.414 0 .707.707-.707-.707Zm7.475-7.475.707-.707a1 1 0 0 0-1.414 0l.707.707Zm7.475 7.475-.708.707.707-.707Zm1.414-1.415.707-.707-.707.707Zm-7.475-7.474-.707-.707a1 1 0 0 0 0 1.414l.707-.707ZM18.364 2l1.414 1.414a2 2 0 0 0 0-2.828L18.364 2Zm0 0L19.778.586a2 2 0 0 0-2.829 0L18.364 2Zm-7.475 7.475L18.364 2 16.949.586 9.475 8.06l1.414 1.415ZM2 2l7.475 7.475 1.414-1.415L3.414.586 2 2Zm0 0L3.414.586a2 2 0 0 0-2.828 0L2 2Zm0 0L.586.586a2 2 0 0 0 0 2.828L2 2Zm7.475 7.475L2 2 .586 3.414 8.06 10.89l1.415-1.414ZM2 18.364l7.475-7.475L8.06 9.475.586 16.949 2 18.364Zm0 0L.586 16.949a2 2 0 0 0 0 2.829L2 18.364Zm0 0L.586 19.778a2 2 0 0 0 2.828 0L2 18.364Zm7.475-7.475L2 18.364l1.414 1.414 7.475-7.475-1.414-1.414Zm8.889 7.475-7.475-7.475-1.414 1.414 7.474 7.475 1.415-1.414Zm0 0-1.415 1.414a2 2 0 0 0 2.829 0l-1.414-1.414Zm0 0 1.414 1.414a2 2 0 0 0 0-2.829l-1.414 1.415Zm-7.475-7.475 7.475 7.475 1.414-1.415-7.475-7.474-1.414 1.414ZM18.364 2l-7.475 7.475 1.414 1.414 7.475-7.475L18.364 2Z" fill="#000"/></svg><svg fill="none" viewBox="0 0 6 9" id="down_menu_arrow" xmlns="http://www.w3.org/2000/svg"><path d="m1.333 7.7 3.334-3.2-3.334-3.2" stroke="#000" stroke-linecap="square"/></svg><svg fill="none" viewBox="0 0 10 6" id="menu_arrow" xmlns="http://www.w3.org/2000/svg"><path d="m1 1 4 4 4-4" stroke="#000" stroke-linecap="square"/></svg><svg fill="none" viewBox="0 0 19 19" id="search" xmlns="http://www.w3.org/2000/svg"><path d="m12.384 13.796.374-.332a.5.5 0 0 0-.675-.068l.301.4Zm1.412-1.412-.4-.3a.5.5 0 0 0 .068.674l.332-.374Zm.044.042-.353.354.353-.354Zm3.867 3.867.354-.354-.354.354Zm0 1.414.354.354-.354-.354Zm-1.414 0-.354.354.354-.354Zm-3.867-3.867.354-.353-.354.353Zm-4.315-.118a5.611 5.611 0 0 0 5.611-5.61h-1a4.611 4.611 0 0 1-4.61 4.61v1ZM2.5 8.112a5.611 5.611 0 0 0 5.611 5.61v-1A4.611 4.611 0 0 1 3.5 8.112h-1ZM8.111 2.5A5.611 5.611 0 0 0 2.5 8.111h1A4.611 4.611 0 0 1 8.111 3.5v-1Zm5.611 5.611A5.611 5.611 0 0 0 8.112 2.5v1a4.611 4.611 0 0 1 4.61 4.611h1Zm-5.61 7.611a7.58 7.58 0 0 0 4.573-1.527l-.602-.799a6.58 6.58 0 0 1-3.972 1.326v1ZM.5 8.112a7.611 7.611 0 0 0 7.611 7.61v-1A6.611 6.611 0 0 1 1.5 8.112h-1ZM8.111.5A7.611 7.611 0 0 0 .5 8.111h1A6.611 6.611 0 0 1 8.111 1.5v-1Zm7.611 7.611A7.611 7.611 0 0 0 8.112.5v1a6.611 6.611 0 0 1 6.61 6.611h1Zm-1.527 4.574a7.58 7.58 0 0 0 1.527-4.574h-1a6.58 6.58 0 0 1-1.326 3.972l.8.602Zm-.73.073a.57.57 0 0 1 .022.022l.707-.707a1.509 1.509 0 0 0-.067-.063l-.663.748Zm.022.022 3.867 3.866.707-.707-3.867-3.866-.707.707Zm3.867 3.866a.5.5 0 0 1 0 .708l.707.707a1.5 1.5 0 0 0 0-2.122l-.707.707Zm0 .708a.5.5 0 0 1-.708 0l-.707.707a1.5 1.5 0 0 0 2.122 0l-.707-.707Zm-.708 0-3.866-3.867-.707.707 3.866 3.867.707-.707Zm-3.866-3.867a.57.57 0 0 1-.022-.023l-.748.663c.02.023.04.045.063.067l.707-.707Z" fill="#000"/></svg></svg>